<svg xmlns="http://www.w3.org/2000/svg" width="180" height="180" viewBox="0 0 180 180" fill="none"><path fill-rule="evenodd" clip-rule="evenodd" d="M180 90C180 139.706 139.706 180 90 180C80.6276 180 71.5897 178.567 63.0935 175.909H39.2727C37.0134 175.909 35.1818 174.078 35.1818 171.818C35.1818 169.559 37.0134 167.727 39.2727 167.727H42.1364H44.6008C44.3846 167.601 44.169 167.473 43.954 167.345C45.5339 166.647 46.6364 165.066 46.6364 163.227C46.6364 160.742 44.6216 158.727 42.1364 158.727H31.8889H20.8636H16.3636C14.1043 158.727 12.2727 156.896 12.2727 154.636C12.2727 152.377 14.1043 150.545 16.3636 150.545H23.409C8.86538 134.559 0 113.315 0 90C0 40.2944 40.2944 0 90 0C99.3725 0 108.41 1.43265 116.906 4.09091H141.545C143.805 4.09091 145.636 5.92247 145.636 8.18182C145.636 10.4412 143.805 12.2727 141.545 12.2727H136.227H135.399L135.499 12.3313C133.36 12.6793 131.727 14.5353 131.727 16.7727C131.727 19.258 133.742 21.2727 136.227 21.2727H148.111H157.5H160.364C162.623 21.2727 164.455 23.1043 164.455 25.3636C164.455 27.623 162.623 29.4545 160.364 29.4545H156.591C171.135 45.441 180 66.6852 180 90ZM27.8182 167.727C25.5588 167.727 23.7273 169.559 23.7273 171.818C23.7273 174.078 25.5588 175.909 27.8182 175.909C30.0775 175.909 31.9091 174.078 31.9091 171.818C31.9091 169.559 30.0775 167.727 27.8182 167.727ZM167.727 25.3636C167.727 23.1043 169.559 21.2727 171.818 21.2727C174.078 21.2727 175.909 23.1043 175.909 25.3636C175.909 27.623 174.078 29.4545 171.818 29.4545C169.559 29.4545 167.727 27.623 167.727 25.3636Z" fill="#C6F1FF"></path><rect x="27" y="35" width="127.636" height="32.7273" rx="5" fill="white"></rect><path d="M27 64.4531H130.091V67.7259H30.2727C28.4653 67.7259 27 66.2606 27 64.4531V64.4531Z" fill="#F44336"></path><path opacity="0.8" fill-rule="evenodd" clip-rule="evenodd" d="M66.3255 52.587H62.936V56.1558H61.4727V47.7342H66.8229V48.9142H62.936V51.4187H66.3255V52.587ZM67.5806 52.9688C67.5806 52.3557 67.7021 51.8033 67.945 51.3117C68.188 50.82 68.5292 50.4421 68.9688 50.178C69.4084 49.9138 69.9135 49.7818 70.4842 49.7818C71.3287 49.7818 72.0141 50.0536 72.5405 50.5973C73.0668 51.141 73.3512 51.8621 73.3936 52.7606L73.3994 53.0903C73.3994 53.7072 73.2808 54.2586 73.0437 54.7445C72.8065 55.2304 72.4672 55.6063 72.0257 55.8724C71.5842 56.1385 71.0742 56.2715 70.4958 56.2715C69.6128 56.2715 68.9061 55.9775 68.3759 55.3894C67.8457 54.8014 67.5806 54.0176 67.5806 53.0382V52.9688ZM68.9862 53.0903C68.9862 53.7342 69.1192 54.2384 69.3853 54.6028C69.6513 54.9672 70.0215 55.1494 70.4958 55.1494C70.9701 55.1494 71.3393 54.9643 71.6034 54.5941C71.8676 54.2239 71.9996 53.6822 71.9996 52.9688C71.9996 52.3364 71.8637 51.8351 71.5919 51.4649C71.32 51.0947 70.9508 50.9097 70.4842 50.9097C70.0254 50.9097 69.661 51.0919 69.391 51.4563C69.1211 51.8207 68.9862 52.3653 68.9862 53.0903ZM74.3248 52.9688C74.3248 52.3557 74.4463 51.8033 74.6892 51.3117C74.9322 50.82 75.2734 50.4421 75.713 50.178C76.1526 49.9138 76.6577 49.7818 77.2284 49.7818C78.0729 49.7818 78.7583 50.0536 79.2847 50.5973C79.811 51.141 80.0954 51.8621 80.1378 52.7606L80.1436 53.0903C80.1436 53.7072 80.025 54.2586 79.7879 54.7445C79.5507 55.2304 79.2114 55.6063 78.7699 55.8724C78.3284 56.1385 77.8184 56.2715 77.24 56.2715C76.357 56.2715 75.6504 55.9775 75.1201 55.3894C74.5899 54.8014 74.3248 54.0176 74.3248 53.0382V52.9688ZM75.7304 53.0903C75.7304 53.7342 75.8634 54.2384 76.1295 54.6028C76.3955 54.9672 76.7657 55.1494 77.24 55.1494C77.7143 55.1494 78.0835 54.9643 78.3477 54.5941C78.6118 54.2239 78.7439 53.6822 78.7439 52.9688C78.7439 52.3364 78.6079 51.8351 78.3361 51.4649C78.0642 51.0947 77.695 50.9097 77.2284 50.9097C76.7696 50.9097 76.4052 51.0919 76.1353 51.4563C75.8653 51.8207 75.7304 52.3653 75.7304 53.0903ZM81.0691 52.9804C81.0691 52.0163 81.2927 51.2422 81.74 50.6581C82.1873 50.0739 82.7869 49.7818 83.5389 49.7818C84.2021 49.7818 84.7381 50.0131 85.1468 50.4759V47.2715H86.5523V56.1558H85.2799L85.2104 55.508C84.7901 56.017 84.2291 56.2715 83.5273 56.2715C82.7946 56.2715 82.2018 55.9765 81.7487 55.3865C81.2956 54.7965 81.0691 53.9945 81.0691 52.9804ZM82.4746 53.1018C82.4746 53.7381 82.597 54.2345 82.8419 54.5912C83.0867 54.9479 83.4347 55.1262 83.8859 55.1262C84.4604 55.1262 84.8808 54.8698 85.1468 54.357V51.6847C84.8885 51.1834 84.472 50.9328 83.8975 50.9328C83.4424 50.9328 83.0916 51.1131 82.8448 51.4736C82.598 51.8341 82.4746 52.3769 82.4746 53.1018Z" fill="#2F3841"></path><path fill-rule="evenodd" clip-rule="evenodd" d="M41.1776 48.1553V44.8174C41.2256 44.8159 41.2762 44.8164 41.3279 44.8169C41.3541 44.8171 41.3806 44.8174 41.4072 44.8174C41.5037 44.8174 41.5919 44.8209 41.6785 44.8244C41.693 44.825 41.7075 44.8255 41.7219 44.8261V48.1553C41.7219 48.3089 41.8438 48.4335 41.9941 48.4335C42.1443 48.4335 42.2662 48.3089 42.2662 48.1553V44.8696C42.9069 44.9533 43.1886 45.1154 43.2273 45.139L43.3379 45.2086L43.3549 45.3476C43.366 45.4586 43.627 48.0724 43.627 48.9898C43.627 50.0989 43.0141 50.5609 42.6064 50.8674L42.5962 50.8751C42.4198 51.0079 42.2662 51.1234 42.2662 51.2151C42.2662 51.4334 42.306 51.9209 42.3529 52.4954C42.3552 52.5234 42.3575 52.5515 42.3598 52.5799C42.4395 53.5632 42.5384 54.7892 42.5384 55.6657C42.5389 56.9013 42.4518 57.6902 42.2662 58.1431C42.0545 58.661 41.7252 58.7255 41.4582 58.7255H41.4497C40.6365 58.7244 40.3611 57.9525 40.3611 55.6657C40.3603 54.7876 40.4591 53.5651 40.5397 52.5799C40.542 52.5517 40.5443 52.5236 40.5466 52.4958C40.5932 51.9234 40.6333 51.4324 40.6333 51.2151C40.6333 51.1194 40.4762 50.9984 40.2931 50.8587L40.2913 50.8574C39.8855 50.5478 39.2727 50.0803 39.2725 48.9898C39.2725 47.599 39.5335 45.4307 39.5446 45.3389L39.5616 45.2259L39.6552 45.1477C39.7104 45.1054 39.9667 44.9407 40.6333 44.8609V48.1553C40.6333 48.3089 40.7552 48.4335 40.9054 48.4335C41.0557 48.4335 41.1776 48.3089 41.1776 48.1553ZM44.8351 44.8615C44.8734 44.8357 44.9185 44.822 44.9627 44.8181C45.0069 44.8141 45.057 44.8258 45.0988 44.8441C47.2889 45.8032 47.4541 48.0593 47.4547 48.7297C47.4538 49.6655 47.0194 50.4794 46.6297 51.1984L46.6246 51.2078C46.3439 51.7256 46.0766 52.219 46.0769 52.6066C46.0769 52.8022 46.1495 53.0355 46.247 53.3368L46.2505 53.3478C46.4065 53.8295 46.6209 54.4919 46.6212 55.3882C46.6217 58.1359 45.8812 58.7169 45.2604 58.7175C44.5212 58.7164 44.4439 58.0386 44.4439 56.5009C44.4439 55.8883 44.534 54.5878 44.6168 53.394C44.6216 53.3253 44.6263 53.2569 44.631 53.189C44.6906 52.3217 44.7418 51.5085 44.7416 51.2593C44.7413 50.8576 44.7325 49.704 44.7246 48.921C44.7225 48.7178 44.7203 48.5385 44.7187 48.4037C44.7171 48.2731 44.7161 48.1843 44.7161 48.156V45.0962C44.7161 45.0028 44.7589 44.913 44.8351 44.8615Z" fill="#F44336"></path><rect x="27" y="108.635" width="127.636" height="32.7273" rx="5" fill="white"></rect><path d="M27 137.271H58.9091V141.362H31.0909C28.8316 141.362 27 139.531 27 137.271V137.271Z" fill="#A75DE7"></path><path opacity="0.8" fill-rule="evenodd" clip-rule="evenodd" d="M67.2349 126.901H63.7958L63.0763 128.968H61.4727L64.8263 120.09H66.2105L69.5702 128.968H67.9605L67.2349 126.901ZM64.2281 125.657H66.8012L65.5147 121.974L64.2281 125.657ZM74.4293 128.322C73.9943 128.834 73.3764 129.09 72.5756 129.09C71.8602 129.09 71.3185 128.881 70.9506 128.462C70.5827 128.043 70.3988 127.437 70.3988 126.645V122.37H71.8805V126.626C71.8805 127.464 72.2281 127.883 72.9232 127.883C73.6427 127.883 74.1285 127.624 74.3805 127.108V122.37H75.8622V128.968H74.4659L74.4293 128.322ZM79.2285 120.768V122.371H80.3931V123.469H79.2285V127.152C79.2285 127.404 79.2783 127.586 79.3779 127.697C79.4775 127.809 79.6553 127.865 79.9114 127.865C80.0821 127.865 80.2549 127.845 80.4297 127.804V128.951C80.0923 129.044 79.7671 129.091 79.4541 129.091C78.3159 129.091 77.7468 128.463 77.7468 127.207V123.469H76.6614V122.371H77.7468V120.768H79.2285ZM81.2469 125.609C81.2469 124.962 81.3749 124.38 81.631 123.862C81.8871 123.343 82.2469 122.945 82.7103 122.667C83.1737 122.388 83.7062 122.249 84.3079 122.249C85.1981 122.249 85.9207 122.536 86.4756 123.109C87.0304 123.682 87.3302 124.442 87.3749 125.389L87.381 125.737C87.381 126.387 87.256 126.968 87.006 127.481C86.756 127.993 86.3983 128.389 85.9329 128.67C85.4674 128.95 84.9298 129.09 84.3201 129.09C83.3892 129.09 82.6443 128.78 82.0853 128.161C81.5264 127.541 81.2469 126.714 81.2469 125.682V125.609ZM82.7282 125.737C82.7282 126.416 82.8685 126.947 83.149 127.331C83.4295 127.715 83.8197 127.907 84.3197 127.907C84.8197 127.907 85.2089 127.712 85.4874 127.322C85.7659 126.932 85.9051 126.361 85.9051 125.609C85.9051 124.942 85.7618 124.413 85.4752 124.023C85.1886 123.633 84.7994 123.438 84.3075 123.438C83.8238 123.438 83.4396 123.63 83.1551 124.014C82.8705 124.398 82.7282 124.972 82.7282 125.737Z" fill="#2F3841"></path><path opacity="0.8" fill-rule="evenodd" clip-rule="evenodd" d="M129.92 126.162H126V124.505H129.92V126.162ZM133.498 123.68H134.571C135.081 123.68 135.459 123.549 135.705 123.289C135.951 123.028 136.074 122.682 136.074 122.251C136.074 121.833 135.953 121.509 135.709 121.276C135.465 121.044 135.13 120.928 134.703 120.928C134.318 120.928 133.995 121.036 133.735 121.252C133.475 121.467 133.345 121.748 133.345 122.094H131.333C131.333 121.554 131.476 121.069 131.761 120.64C132.047 120.211 132.446 119.876 132.959 119.634C133.472 119.392 134.037 119.271 134.654 119.271C135.726 119.271 136.566 119.533 137.174 120.057C137.782 120.581 138.086 121.303 138.086 122.222C138.086 122.696 137.945 123.132 137.662 123.53C137.379 123.928 137.007 124.234 136.548 124.447C137.119 124.656 137.545 124.969 137.825 125.386C138.106 125.803 138.247 126.296 138.247 126.865C138.247 127.784 137.918 128.521 137.261 129.076C136.605 129.631 135.736 129.908 134.654 129.908C133.642 129.908 132.815 129.635 132.172 129.09C131.529 128.545 131.208 127.825 131.208 126.929H133.22C133.22 127.317 133.363 127.635 133.648 127.882C133.934 128.128 134.285 128.251 134.703 128.251C135.181 128.251 135.556 128.122 135.827 127.864C136.099 127.605 136.235 127.263 136.235 126.836C136.235 125.803 135.678 125.286 134.564 125.286H133.498V123.68ZM146.455 125.486C146.455 126.917 146.164 128.012 145.584 128.77C145.004 129.529 144.155 129.908 143.036 129.908C141.932 129.908 141.087 129.536 140.502 128.792C139.917 128.047 139.618 126.981 139.604 125.592V123.687C139.604 122.241 139.897 121.144 140.485 120.395C141.072 119.646 141.918 119.271 143.022 119.271C144.127 119.271 144.972 119.642 145.556 120.384C146.141 121.126 146.441 122.191 146.455 123.58V125.486ZM144.442 123.395C144.442 122.537 144.327 121.913 144.098 121.522C143.868 121.131 143.509 120.935 143.022 120.935C142.549 120.935 142.199 121.121 141.974 121.493C141.749 121.865 141.63 122.447 141.616 123.239V125.756C141.616 126.599 141.728 127.226 141.953 127.636C142.179 128.046 142.539 128.251 143.036 128.251C143.528 128.251 143.883 128.054 144.101 127.661C144.319 127.268 144.433 126.666 144.442 125.855V123.395Z" fill="#A75DE7"></path><path fill-rule="evenodd" clip-rule="evenodd" d="M40.7061 119.604C40.8554 119.542 41.6356 119.271 43.7727 119.271C45.872 119.271 46.6605 119.536 46.8292 119.604C47.3772 119.756 48.1265 120.025 48.3979 120.621C48.5171 120.883 48.8894 121.799 49.2683 122.742C49.27 122.746 49.2712 122.75 49.2725 122.755C49.2742 122.76 49.2758 122.766 49.2784 122.771C49.7347 123.907 50.1954 125.069 50.2298 125.157L50.25 125.215V128.969C50.25 129.487 49.8141 129.908 49.2784 129.908H47.983C47.4473 129.908 47.0114 129.487 47.0114 128.969V128.657H40.5341V128.969C40.5341 129.487 40.0982 129.908 39.5625 129.908H38.267C37.7314 129.908 37.2955 129.487 37.2955 128.969V125.215L37.3157 125.157C37.4789 124.736 38.9182 121.032 39.1374 120.621C39.4603 120.016 40.2045 119.769 40.7061 119.604ZM46.5758 120.181C46.5586 120.174 45.8715 119.897 43.7727 119.897C41.6508 119.897 40.9656 120.178 40.9592 120.181L40.9288 120.19C40.5256 120.323 39.9203 120.528 39.7143 120.914C39.6334 121.066 39.3112 121.853 38.935 122.801L38.9047 122.859L38.9033 122.863C38.8247 123.049 38.6622 123.434 38.8136 123.651C38.9431 123.838 39.3342 123.964 39.8864 123.964H47.6591C48.211 123.964 48.5818 123.866 48.7116 123.68C48.838 123.498 48.7505 123.198 48.6712 122.996C48.6667 122.985 48.6611 122.973 48.6556 122.961C48.6503 122.95 48.6451 122.938 48.6408 122.928C48.6378 122.921 48.6366 122.914 48.6354 122.907C48.6343 122.901 48.6332 122.895 48.6307 122.889L48.6003 122.83C48.2444 121.945 47.909 121.113 47.8008 120.875C47.6176 120.472 46.8722 120.268 46.6274 120.2L46.5758 120.181ZM37.3258 122.713C36.3471 122.713 36 123.294 36 123.837C36 124.101 36.1224 124.526 36.8501 124.58L36.9899 124.22C37.1669 123.764 37.3726 123.234 37.5788 122.713H37.3258ZM50.2705 123.52L50.2637 123.503C50.1625 123.251 50.0547 122.983 49.9464 122.713H50.2196C51.1987 122.713 51.5455 123.294 51.5455 123.837C51.5455 124.102 51.4256 124.527 50.6953 124.58C50.5921 124.321 50.4408 123.944 50.2705 123.52ZM40.5341 125.215C41.0704 125.215 41.5057 125.635 41.5057 126.154C41.5057 126.673 41.0704 127.092 40.5341 127.092C40.0585 127.092 39.876 126.99 39.4606 126.759C39.4019 126.726 39.3385 126.69 39.269 126.652C38.893 126.447 38.5909 126.25 38.5909 125.841C38.5909 125.495 38.8811 125.215 39.2386 125.215H40.5341ZM48.9545 125.841C48.9545 125.495 48.6644 125.215 48.3068 125.215H47.0114C46.475 125.215 46.0398 125.635 46.0398 126.154C46.0398 126.673 46.475 127.092 47.0114 127.092C47.4872 127.092 47.6699 126.99 48.0857 126.758C48.1442 126.726 48.2073 126.69 48.2765 126.652C48.6525 126.447 48.9545 126.25 48.9545 125.841Z" fill="#A75DE7"></path><rect x="27" y="71.8164" width="127.636" height="32.7273" rx="5" fill="white"></rect><path d="M27 101.271H103.909V104.544H30.2727C28.4652 104.544 27 103.079 27 101.271V101.271Z" fill="#FD9F45"></path><path opacity="0.8" fill-rule="evenodd" clip-rule="evenodd" d="M68.4121 91.7159H66.8755V87.7708H62.906V91.7159H61.3633V82.8379H62.906V86.533H66.8755V82.8379H68.4121V91.7159ZM69.8145 88.3562C69.8145 87.7098 69.9425 87.1275 70.1986 86.6092C70.4547 86.0909 70.8145 85.6926 71.2779 85.4141C71.7413 85.1357 72.2738 84.9964 72.8755 84.9964C73.7657 84.9964 74.4883 85.283 75.0432 85.8562C75.598 86.4294 75.8978 87.1895 75.9425 88.1367L75.9486 88.4842C75.9486 89.1346 75.8236 89.7159 75.5736 90.2281C75.3236 90.7403 74.9659 91.1367 74.5005 91.4172C74.035 91.6976 73.4974 91.8379 72.8877 91.8379C71.9568 91.8379 71.2119 91.5279 70.6529 90.908C70.094 90.2881 69.8145 89.4619 69.8145 88.4294V88.3562ZM71.2962 88.4842C71.2962 89.1631 71.4365 89.6946 71.7169 90.0787C71.9974 90.4629 72.3877 90.655 72.8877 90.655C73.3877 90.655 73.7769 90.4598 74.0554 90.0696C74.3338 89.6794 74.473 89.1082 74.473 88.3562C74.473 87.6895 74.3297 87.1611 74.0432 86.7708C73.7566 86.3806 73.3673 86.1855 72.8755 86.1855C72.3917 86.1855 72.0076 86.3775 71.723 86.7617C71.4385 87.1458 71.2962 87.72 71.2962 88.4842ZM81.1986 91.0696C80.7637 91.5818 80.1458 91.8379 79.345 91.8379C78.6295 91.8379 78.0879 91.6285 77.72 91.2098C77.3521 90.7911 77.1682 90.1855 77.1682 89.3928V85.1184H78.6499V89.3745C78.6499 90.2119 78.9974 90.6306 79.6925 90.6306C80.4121 90.6306 80.8978 90.3724 81.1499 89.8562V85.1184H82.6316V91.7159H81.2352L81.1986 91.0696ZM87.8389 89.9233C87.8389 89.659 87.7302 89.4578 87.5127 89.3196C87.2952 89.1814 86.9344 89.0594 86.4304 88.9537C85.9263 88.8481 85.5056 88.7139 85.1682 88.5513C84.4283 88.1936 84.0584 87.6753 84.0584 86.9964C84.0584 86.4273 84.2982 85.9517 84.7779 85.5696C85.2576 85.1875 85.8673 84.9964 86.6072 84.9964C87.3958 84.9964 88.033 85.1915 88.5188 85.5818C89.0045 85.972 89.2474 86.4781 89.2474 87.1001H87.7657C87.7657 86.8155 87.66 86.5787 87.4486 86.3897C87.2373 86.2007 86.9568 86.1062 86.6072 86.1062C86.282 86.1062 86.0167 86.1814 85.8115 86.3318C85.6062 86.4822 85.5035 86.6834 85.5035 86.9355C85.5035 87.1631 85.5991 87.3399 85.7901 87.4659C85.9812 87.592 86.3673 87.719 86.9486 87.847C87.53 87.9751 87.9862 88.1275 88.3176 88.3044C88.6489 88.4812 88.8948 88.6936 89.0554 88.9415C89.2159 89.1895 89.2962 89.4903 89.2962 89.844C89.2962 90.4375 89.0503 90.9182 88.5584 91.2861C88.0665 91.6539 87.4222 91.8379 86.6255 91.8379C86.0848 91.8379 85.6031 91.7403 85.1804 91.5452C84.7576 91.3501 84.4283 91.0818 84.1925 90.7403C83.9568 90.3989 83.8389 90.031 83.8389 89.6367H85.2779C85.2982 89.9863 85.4304 90.2556 85.6743 90.4446C85.9182 90.6336 86.2413 90.7281 86.6438 90.7281C87.034 90.7281 87.3308 90.6539 87.534 90.5056C87.7373 90.3572 87.8389 90.1631 87.8389 89.9233ZM93.4913 91.8379C92.5523 91.8379 91.7911 91.5422 91.2078 90.9507C90.6245 90.3592 90.3328 89.5716 90.3328 88.5879V88.405C90.3328 87.7464 90.4598 87.158 90.7139 86.6397C90.968 86.1214 91.3247 85.718 91.784 85.4294C92.2434 85.1407 92.7556 84.9964 93.3206 84.9964C94.219 84.9964 94.9131 85.283 95.4029 85.8562C95.8928 86.4294 96.1377 87.2403 96.1377 88.2891V88.8867H91.8267C91.8714 89.4314 92.0533 89.8623 92.3724 90.1794C92.6915 90.4964 93.093 90.655 93.5767 90.655C94.2556 90.655 94.8084 90.3806 95.2352 89.8318L96.034 90.594C95.7698 90.9883 95.4171 91.2942 94.9761 91.5117C94.535 91.7292 94.0401 91.8379 93.4913 91.8379ZM93.3145 86.1855C92.908 86.1855 92.5797 86.3277 92.3297 86.6123C92.0797 86.8968 91.9202 87.2932 91.8511 87.8013H94.6743V87.6915C94.6417 87.1956 94.5096 86.8206 94.2779 86.5665C94.0462 86.3125 93.7251 86.1855 93.3145 86.1855Z" fill="#2F3841"></path><path opacity="0.8" fill-rule="evenodd" clip-rule="evenodd" d="M121.738 52.5268H117.818V50.8702H121.738V52.5268ZM128.157 56.1307H126.145V48.2104L123.743 48.9711V47.3003L127.941 45.7646H128.157V56.1307ZM138.274 51.8507C138.274 53.2822 137.984 54.3771 137.404 55.1355C136.824 55.8939 135.974 56.2731 134.855 56.2731C133.751 56.2731 132.906 55.901 132.321 55.1568C131.736 54.4127 131.437 53.3462 131.423 51.9574V50.0519C131.423 48.6063 131.717 47.509 132.304 46.7601C132.891 46.0112 133.737 45.6367 134.842 45.6367C135.946 45.6367 136.791 46.0076 137.376 46.7494C137.961 47.4912 138.26 48.5565 138.274 49.9453V51.8507ZM136.262 49.7603C136.262 48.9023 136.147 48.2779 135.917 47.8868C135.687 47.4958 135.329 47.3002 134.841 47.3002C134.368 47.3002 134.019 47.4863 133.793 47.8584C133.568 48.2305 133.449 48.8123 133.435 49.6038V52.1207C133.435 52.9644 133.547 53.5913 133.773 54.0013C133.998 54.4113 134.359 54.6163 134.855 54.6163C135.347 54.6163 135.702 54.4196 135.921 54.0262C136.139 53.6328 136.252 53.0308 136.262 52.2203V49.7603ZM146.455 51.8507C146.455 53.2822 146.165 54.3771 145.585 55.1355C145.005 55.8939 144.155 56.2731 143.037 56.2731C141.932 56.2731 141.087 55.901 140.502 55.1568C139.917 54.4127 139.618 53.3462 139.604 51.9574V50.0519C139.604 48.6063 139.898 47.509 140.485 46.7601C141.072 46.0112 141.918 45.6367 143.023 45.6367C144.127 45.6367 144.972 46.0076 145.557 46.7494C146.142 47.4912 146.441 48.5565 146.455 49.9453V51.8507ZM144.443 49.7603C144.443 48.9023 144.328 48.2779 144.098 47.8868C143.868 47.4958 143.51 47.3002 143.022 47.3002C142.549 47.3002 142.2 47.4863 141.975 47.8584C141.749 48.2305 141.63 48.8123 141.616 49.6038V52.1207C141.616 52.9644 141.729 53.5913 141.954 54.0013C142.179 54.4113 142.54 54.6163 143.036 54.6163C143.528 54.6163 143.883 54.4196 144.102 54.0262C144.32 53.6328 144.433 53.0308 144.443 52.2203V49.7603Z" fill="#F44336"></path><path opacity="0.8" fill-rule="evenodd" clip-rule="evenodd" d="M129.92 89.3452H126V87.6886H129.92V89.3452ZM131.751 87.8586L132.336 82.5973H138.017V84.3108H133.986L133.735 86.5362C134.213 86.2755 134.721 86.1451 135.26 86.1451C136.225 86.1451 136.982 86.4508 137.529 87.0623C138.077 87.6738 138.351 88.5293 138.351 89.629C138.351 90.2973 138.213 90.8957 137.937 91.4242C137.66 91.9527 137.265 92.3627 136.75 92.6542C136.234 92.9457 135.626 93.0915 134.925 93.0915C134.313 93.0915 133.744 92.9647 133.22 92.7111C132.695 92.4575 132.281 92.1008 131.977 91.6411C131.673 91.1813 131.512 90.6575 131.493 90.0698H133.484C133.526 90.5011 133.673 90.8365 133.926 91.0758C134.179 91.3152 134.51 91.4349 134.918 91.4349C135.373 91.4349 135.724 91.2678 135.97 90.9336C136.216 90.5995 136.339 90.1267 136.339 89.5152C136.339 88.9275 136.197 88.4772 135.914 88.1643C135.631 87.8515 135.229 87.6951 134.71 87.6951C134.232 87.6951 133.844 87.8231 133.547 88.079L133.352 88.2639L131.751 87.8586ZM146.455 88.6691C146.455 90.1006 146.164 91.1955 145.584 91.9539C145.004 92.7123 144.155 93.0914 143.036 93.0914C141.932 93.0914 141.087 92.7194 140.502 91.9752C139.917 91.231 139.618 90.1646 139.604 88.7758V86.8703C139.604 85.4246 139.897 84.3273 140.485 83.5784C141.072 82.8295 141.918 82.4551 143.022 82.4551C144.127 82.4551 144.972 82.826 145.556 83.5678C146.141 84.3096 146.441 85.3749 146.455 86.7637V88.6691ZM144.442 86.5786C144.442 85.7207 144.327 85.0962 144.098 84.7052C143.868 84.3141 143.509 84.1186 143.022 84.1186C142.549 84.1186 142.199 84.3046 141.974 84.6767C141.749 85.0488 141.63 85.6306 141.616 86.4222V88.9391C141.616 89.7828 141.728 90.4097 141.953 90.8197C142.179 91.2297 142.539 91.4347 143.036 91.4347C143.528 91.4347 143.883 91.238 144.101 90.8445C144.319 90.4511 144.433 89.8492 144.442 89.0386V86.5786Z" fill="#FD9F45"></path><path fill-rule="evenodd" clip-rule="evenodd" d="M44.0163 79.2277C44.0655 79.1953 44.1256 79.1816 44.182 79.1816C44.2384 79.1816 44.2985 79.1953 44.3477 79.2277L51.4168 83.8852C51.4995 83.9394 51.5456 84.0344 51.5456 84.1337V86.0482C51.5456 86.1566 51.4849 86.2547 51.3892 86.306C51.3456 86.3292 51.2988 86.3428 51.2511 86.3428C51.1942 86.3428 51.1346 86.3202 51.0854 86.2875L44.182 81.7129L37.2786 86.2875C37.1879 86.3476 37.0703 86.3572 36.9748 86.306C36.8794 86.2547 36.8184 86.1566 36.8184 86.0482V84.1337C36.8184 84.0347 36.8645 83.9397 36.9472 83.8852L44.0163 79.2277ZM37.7019 86.711L44.1819 82.4217L50.6619 86.711V93.6144C50.6619 93.7773 50.5302 93.909 50.3673 93.909H37.9964C37.8338 93.909 37.7019 93.7773 37.7019 93.6144V86.711ZM40.353 85.9549H42.7093V88.3113H40.353V85.9549ZM48.0107 88.606H44.7707V93.3187H48.0107V88.606Z" fill="#FD9F45"></path></svg>