<svg xmlns="http://www.w3.org/2000/svg" width="180" height="180" viewBox="0 0 180 180" fill="none"><path fill-rule="evenodd" clip-rule="evenodd" d="M180 90C180 139.706 139.706 180 90 180C80.6276 180 71.5897 178.567 63.0935 175.909H39.2727C37.0134 175.909 35.1818 174.078 35.1818 171.818C35.1818 169.559 37.0134 167.727 39.2727 167.727H42.1364H44.6008C44.3846 167.601 44.169 167.473 43.954 167.345C45.5339 166.647 46.6364 165.066 46.6364 163.227C46.6364 160.742 44.6216 158.727 42.1364 158.727H31.8889H20.8636H16.3636C14.1043 158.727 12.2727 156.896 12.2727 154.636C12.2727 152.377 14.1043 150.545 16.3636 150.545H23.409C8.86538 134.559 0 113.315 0 90C0 40.2944 40.2944 0 90 0C99.3725 0 108.41 1.43265 116.906 4.09091H141.545C143.805 4.09091 145.636 5.92247 145.636 8.18182C145.636 10.4412 143.805 12.2727 141.545 12.2727H136.227H135.399L135.499 12.3313C133.36 12.6793 131.727 14.5353 131.727 16.7727C131.727 19.258 133.742 21.2727 136.227 21.2727H148.111H157.5H160.364C162.623 21.2727 164.455 23.1043 164.455 25.3636C164.455 27.623 162.623 29.4545 160.364 29.4545H156.591C171.135 45.441 180 66.6852 180 90ZM27.8182 167.727C25.5588 167.727 23.7273 169.559 23.7273 171.818C23.7273 174.078 25.5588 175.909 27.8182 175.909C30.0775 175.909 31.9091 174.078 31.9091 171.818C31.9091 169.559 30.0775 167.727 27.8182 167.727ZM167.727 25.3636C167.727 23.1043 169.559 21.2727 171.818 21.2727C174.078 21.2727 175.909 23.1043 175.909 25.3636C175.909 27.623 174.078 29.4545 171.818 29.4545C169.559 29.4545 167.727 27.623 167.727 25.3636Z" fill="#C6F1FF"></path><path d="M31.9092 51.5455C31.9092 40.7007 40.7007 31.9092 51.5455 31.9092H128.455C139.299 31.9092 148.091 40.7007 148.091 51.5455V128.455C148.091 139.299 139.299 148.091 128.455 148.091H51.5455C40.7007 148.091 31.9092 139.299 31.9092 128.455V51.5455Z" fill="white" fill-opacity="0.3"></path><path fill-rule="evenodd" clip-rule="evenodd" d="M51.5453 33.1362C50.7293 33.1362 49.9262 33.1892 49.1393 33.2918C48.4672 33.3795 47.8513 32.9057 47.7636 32.2336C47.676 31.5615 48.1497 30.9456 48.8218 30.8579C49.7137 30.7416 50.6228 30.6816 51.5453 30.6816H53.9487C54.6265 30.6816 55.176 31.2311 55.176 31.9089C55.176 32.5867 54.6265 33.1362 53.9487 33.1362H51.5453ZM57.5282 31.9089C57.5282 31.2311 58.0777 30.6816 58.7555 30.6816H63.5623C64.2401 30.6816 64.7896 31.2311 64.7896 31.9089C64.7896 32.5867 64.2401 33.1362 63.5623 33.1362H58.7555C58.0777 33.1362 57.5282 32.5867 57.5282 31.9089ZM67.1419 31.9089C67.1419 31.2311 67.6913 30.6816 68.3691 30.6816H73.176C73.8538 30.6816 74.4032 31.2311 74.4032 31.9089C74.4032 32.5867 73.8538 33.1362 73.176 33.1362H68.3691C67.6913 33.1362 67.1419 32.5867 67.1419 31.9089ZM76.7555 31.9089C76.7555 31.2311 77.305 30.6816 77.9828 30.6816H82.7896C83.4674 30.6816 84.0169 31.2311 84.0169 31.9089C84.0169 32.5867 83.4674 33.1362 82.7896 33.1362H77.9828C77.305 33.1362 76.7555 32.5867 76.7555 31.9089ZM86.3691 31.9089C86.3691 31.2311 86.9186 30.6816 87.5964 30.6816H92.4032C93.081 30.6816 93.6305 31.2311 93.6305 31.9089C93.6305 32.5867 93.081 33.1362 92.4032 33.1362H87.5964C86.9186 33.1362 86.3691 32.5867 86.3691 31.9089ZM95.9828 31.9089C95.9828 31.2311 96.5322 30.6816 97.21 30.6816H102.017C102.695 30.6816 103.244 31.2311 103.244 31.9089C103.244 32.5867 102.695 33.1362 102.017 33.1362H97.21C96.5322 33.1362 95.9828 32.5867 95.9828 31.9089ZM105.596 31.9089C105.596 31.2311 106.146 30.6816 106.824 30.6816H111.631C112.308 30.6816 112.858 31.2311 112.858 31.9089C112.858 32.5867 112.308 33.1362 111.631 33.1362H106.824C106.146 33.1362 105.596 32.5867 105.596 31.9089ZM115.21 31.9089C115.21 31.2311 115.76 30.6816 116.437 30.6816H121.244C121.922 30.6816 122.471 31.2311 122.471 31.9089C122.471 32.5867 121.922 33.1362 121.244 33.1362H116.437C115.76 33.1362 115.21 32.5867 115.21 31.9089ZM124.824 31.9089C124.824 31.2311 125.373 30.6816 126.051 30.6816H128.454C129.377 30.6816 130.286 30.7416 131.178 30.8579C131.85 30.9456 132.324 31.5615 132.236 32.2336C132.148 32.9057 131.532 33.3795 130.86 33.2918C130.073 33.1892 129.27 33.1362 128.454 33.1362H126.051C125.373 33.1362 124.824 32.5867 124.824 31.9089ZM45.1624 32.9288C45.422 33.5549 45.1249 34.273 44.4988 34.5326C43.0029 35.1529 41.6059 35.9652 40.3388 36.9389C39.8013 37.3519 39.0308 37.2511 38.6178 36.7136C38.2048 36.1762 38.3057 35.4057 38.8432 34.9927C40.2784 33.8897 41.8618 32.9689 43.5586 32.2653C44.1847 32.0056 44.9027 32.3027 45.1624 32.9288ZM134.837 32.9288C135.097 32.3027 135.815 32.0056 136.441 32.2653C138.138 32.9689 139.721 33.8897 141.156 34.9927C141.694 35.4057 141.795 36.1762 141.382 36.7136C140.969 37.2511 140.198 37.3519 139.661 36.9389C138.394 35.9652 136.997 35.1529 135.501 34.5326C134.875 34.273 134.578 33.5549 134.837 32.9288ZM36.7136 38.6178C37.2511 39.0308 37.3519 39.8013 36.9389 40.3388C35.9652 41.6059 35.1529 43.0029 34.5326 44.4988C34.273 45.1249 33.5549 45.422 32.9288 45.1624C32.3027 44.9027 32.0056 44.1847 32.2653 43.5586C32.9689 41.8618 33.8897 40.2784 34.9927 38.8432C35.4057 38.3057 36.1762 38.2048 36.7136 38.6178ZM143.286 38.6178C143.823 38.2048 144.594 38.3057 145.007 38.8432C146.11 40.2784 147.031 41.8618 147.734 43.5586C147.994 44.1847 147.697 44.9027 147.071 45.1624C146.445 45.422 145.727 45.1249 145.467 44.4988C144.847 43.0029 144.034 41.6059 143.061 40.3388C142.648 39.8013 142.749 39.0308 143.286 38.6178ZM32.2336 47.7636C32.9057 47.8513 33.3795 48.4672 33.2918 49.1393C33.1892 49.9262 33.1362 50.7293 33.1362 51.5453V53.9487C33.1362 54.6265 32.5867 55.176 31.9089 55.176C31.2311 55.176 30.6816 54.6265 30.6816 53.9487V51.5453C30.6816 50.6228 30.7416 49.7137 30.8579 48.8218C30.9456 48.1497 31.5615 47.676 32.2336 47.7636ZM147.766 47.7636C148.438 47.676 149.054 48.1497 149.142 48.8218C149.258 49.7137 149.318 50.6228 149.318 51.5453V53.9487C149.318 54.6265 148.769 55.176 148.091 55.176C147.413 55.176 146.863 54.6265 146.863 53.9487V51.5453C146.863 50.7293 146.81 49.9262 146.708 49.1393C146.62 48.4672 147.094 47.8513 147.766 47.7636ZM148.091 57.5282C148.769 57.5282 149.318 58.0777 149.318 58.7555V63.5623C149.318 64.2401 148.769 64.7896 148.091 64.7896C147.413 64.7896 146.863 64.2401 146.863 63.5623V58.7555C146.863 58.0777 147.413 57.5282 148.091 57.5282ZM31.9089 57.5282C32.5867 57.5282 33.1362 58.0777 33.1362 58.7555V63.5623C33.1362 64.2401 32.5867 64.7896 31.9089 64.7896C31.2311 64.7896 30.6816 64.2401 30.6816 63.5623V58.7555C30.6816 58.0777 31.2311 57.5282 31.9089 57.5282ZM31.9089 67.1419C32.5867 67.1419 33.1362 67.6913 33.1362 68.3691V73.176C33.1362 73.8538 32.5867 74.4032 31.9089 74.4032C31.2311 74.4032 30.6816 73.8538 30.6816 73.176V68.3691C30.6816 67.6913 31.2311 67.1419 31.9089 67.1419ZM148.091 67.1419C148.769 67.1419 149.318 67.6913 149.318 68.3691V73.176C149.318 73.8538 148.769 74.4032 148.091 74.4032C147.413 74.4032 146.863 73.8538 146.863 73.176V68.3691C146.863 67.6913 147.413 67.1419 148.091 67.1419ZM31.9089 76.7555C32.5867 76.7555 33.1362 77.305 33.1362 77.9828V82.7896C33.1362 83.4674 32.5867 84.0169 31.9089 84.0169C31.2311 84.0169 30.6816 83.4674 30.6816 82.7896V77.9828C30.6816 77.305 31.2311 76.7555 31.9089 76.7555ZM148.091 76.7555C148.769 76.7555 149.318 77.305 149.318 77.9828V82.7896C149.318 83.4674 148.769 84.0169 148.091 84.0169C147.413 84.0169 146.863 83.4674 146.863 82.7896V77.9828C146.863 77.305 147.413 76.7555 148.091 76.7555ZM31.9089 86.3691C32.5867 86.3691 33.1362 86.9186 33.1362 87.5964V92.4032C33.1362 93.081 32.5867 93.6305 31.9089 93.6305C31.2311 93.6305 30.6816 93.081 30.6816 92.4032V87.5964C30.6816 86.9186 31.2311 86.3691 31.9089 86.3691ZM148.091 86.3691C148.769 86.3691 149.318 86.9186 149.318 87.5964V92.4032C149.318 93.081 148.769 93.6305 148.091 93.6305C147.413 93.6305 146.863 93.081 146.863 92.4032V87.5964C146.863 86.9186 147.413 86.3691 148.091 86.3691ZM31.9089 95.9828C32.5867 95.9828 33.1362 96.5322 33.1362 97.21V102.017C33.1362 102.695 32.5867 103.244 31.9089 103.244C31.2311 103.244 30.6816 102.695 30.6816 102.017V97.21C30.6816 96.5322 31.2311 95.9828 31.9089 95.9828ZM148.091 95.9828C148.769 95.9828 149.318 96.5322 149.318 97.21V102.017C149.318 102.695 148.769 103.244 148.091 103.244C147.413 103.244 146.863 102.695 146.863 102.017V97.21C146.863 96.5322 147.413 95.9828 148.091 95.9828ZM31.9089 105.596C32.5867 105.596 33.1362 106.146 33.1362 106.824V111.631C33.1362 112.308 32.5867 112.858 31.9089 112.858C31.2311 112.858 30.6816 112.308 30.6816 111.631V106.824C30.6816 106.146 31.2311 105.596 31.9089 105.596ZM148.091 105.596C148.769 105.596 149.318 106.146 149.318 106.824V111.631C149.318 112.308 148.769 112.858 148.091 112.858C147.413 112.858 146.863 112.308 146.863 111.631V106.824C146.863 106.146 147.413 105.596 148.091 105.596ZM31.9089 115.21C32.5867 115.21 33.1362 115.76 33.1362 116.437V121.244C33.1362 121.922 32.5867 122.471 31.9089 122.471C31.2311 122.471 30.6816 121.922 30.6816 121.244V116.437C30.6816 115.76 31.2311 115.21 31.9089 115.21ZM148.091 115.21C148.769 115.21 149.318 115.76 149.318 116.437V121.244C149.318 121.922 148.769 122.471 148.091 122.471C147.413 122.471 146.863 121.922 146.863 121.244V116.437C146.863 115.76 147.413 115.21 148.091 115.21ZM31.9089 124.824C32.5867 124.824 33.1362 125.373 33.1362 126.051V128.454C33.1362 129.27 33.1892 130.073 33.2918 130.86C33.3795 131.532 32.9057 132.148 32.2336 132.236C31.5615 132.324 30.9456 131.85 30.8579 131.178C30.7416 130.286 30.6816 129.377 30.6816 128.454V126.051C30.6816 125.373 31.2311 124.824 31.9089 124.824ZM148.091 124.824C148.769 124.824 149.318 125.373 149.318 126.051V128.454C149.318 129.377 149.258 130.286 149.142 131.178C149.054 131.85 148.438 132.324 147.766 132.236C147.094 132.148 146.62 131.532 146.708 130.86C146.81 130.073 146.863 129.27 146.863 128.454V126.051C146.863 125.373 147.413 124.824 148.091 124.824ZM32.9288 134.837C33.5549 134.578 34.273 134.875 34.5326 135.501C35.1529 136.997 35.9652 138.394 36.9389 139.661C37.3519 140.198 37.2511 140.969 36.7136 141.382C36.1762 141.795 35.4057 141.694 34.9927 141.156C33.8897 139.721 32.9689 138.138 32.2653 136.441C32.0056 135.815 32.3027 135.097 32.9288 134.837ZM147.071 134.837C147.697 135.097 147.994 135.815 147.734 136.441C147.031 138.138 146.11 139.721 145.007 141.156C144.594 141.694 143.823 141.795 143.286 141.382C142.749 140.969 142.648 140.198 143.061 139.661C144.034 138.394 144.847 136.997 145.467 135.501C145.727 134.875 146.445 134.578 147.071 134.837ZM38.6178 143.286C39.0308 142.749 39.8013 142.648 40.3388 143.061C41.6059 144.034 43.0029 144.847 44.4988 145.467C45.1249 145.727 45.422 146.445 45.1624 147.071C44.9027 147.697 44.1847 147.994 43.5586 147.734C41.8618 147.031 40.2784 146.11 38.8432 145.007C38.3057 144.594 38.2048 143.823 38.6178 143.286ZM141.382 143.286C141.795 143.823 141.694 144.594 141.156 145.007C139.721 146.11 138.138 147.031 136.441 147.734C135.815 147.994 135.097 147.697 134.837 147.071C134.578 146.445 134.875 145.727 135.501 145.467C136.997 144.847 138.394 144.034 139.661 143.061C140.198 142.648 140.969 142.749 141.382 143.286ZM47.7636 147.766C47.8513 147.094 48.4672 146.62 49.1393 146.708C49.9262 146.81 50.7293 146.863 51.5453 146.863H53.9487C54.6265 146.863 55.176 147.413 55.176 148.091C55.176 148.769 54.6265 149.318 53.9487 149.318H51.5453C50.6228 149.318 49.7137 149.258 48.8218 149.142C48.1497 149.054 47.676 148.438 47.7636 147.766ZM132.236 147.766C132.324 148.438 131.85 149.054 131.178 149.142C130.286 149.258 129.377 149.318 128.454 149.318H126.051C125.373 149.318 124.824 148.769 124.824 148.091C124.824 147.413 125.373 146.863 126.051 146.863H128.454C129.27 146.863 130.073 146.81 130.86 146.708C131.532 146.62 132.148 147.094 132.236 147.766ZM57.5282 148.091C57.5282 147.413 58.0777 146.863 58.7555 146.863H63.5623C64.2401 146.863 64.7896 147.413 64.7896 148.091C64.7896 148.769 64.2401 149.318 63.5623 149.318H58.7555C58.0777 149.318 57.5282 148.769 57.5282 148.091ZM67.1419 148.091C67.1419 147.413 67.6913 146.863 68.3691 146.863H73.176C73.8538 146.863 74.4032 147.413 74.4032 148.091C74.4032 148.769 73.8538 149.318 73.176 149.318H68.3691C67.6913 149.318 67.1419 148.769 67.1419 148.091ZM76.7555 148.091C76.7555 147.413 77.305 146.863 77.9828 146.863H82.7896C83.4674 146.863 84.0169 147.413 84.0169 148.091C84.0169 148.769 83.4674 149.318 82.7896 149.318H77.9828C77.305 149.318 76.7555 148.769 76.7555 148.091ZM86.3691 148.091C86.3691 147.413 86.9186 146.863 87.5964 146.863H92.4032C93.081 146.863 93.6305 147.413 93.6305 148.091C93.6305 148.769 93.081 149.318 92.4032 149.318H87.5964C86.9186 149.318 86.3691 148.769 86.3691 148.091ZM95.9828 148.091C95.9828 147.413 96.5322 146.863 97.21 146.863H102.017C102.695 146.863 103.244 147.413 103.244 148.091C103.244 148.769 102.695 149.318 102.017 149.318H97.21C96.5322 149.318 95.9828 148.769 95.9828 148.091ZM105.596 148.091C105.596 147.413 106.146 146.863 106.824 146.863H111.631C112.308 146.863 112.858 147.413 112.858 148.091C112.858 148.769 112.308 149.318 111.631 149.318H106.824C106.146 149.318 105.596 148.769 105.596 148.091ZM115.21 148.091C115.21 147.413 115.76 146.863 116.437 146.863H121.244C121.922 146.863 122.471 147.413 122.471 148.091C122.471 148.769 121.922 149.318 121.244 149.318H116.437C115.76 149.318 115.21 148.769 115.21 148.091Z" fill="white"></path><rect x="49.9092" y="51.5454" width="37.6364" height="30.2727" rx="3" fill="#C6C6C6"></rect><rect x="48.2729" y="50.7271" width="38.4545" height="30.2727" rx="3" fill="#D2D2D2"></rect><rect x="47.0454" y="49.5" width="38.8636" height="30.6818" rx="3" fill="#E1E1E1"></rect><rect x="46.6362" y="49.0908" width="38.4545" height="30.2727" rx="3" fill="#ECECEC"></rect><rect x="45.4092" y="47.8638" width="38.8636" height="30.6818" rx="3" fill="#F9F9F9"></rect><rect x="45" y="47.4546" width="38.4545" height="30.2727" rx="3" fill="#59657B"></rect><path d="M49.0908 50.7271H51.0531C51.4415 50.7271 51.7312 50.7433 51.9221 50.7756C52.113 50.808 52.2837 50.8755 52.4344 50.9782C52.5851 51.0809 52.7107 51.2177 52.8111 51.3884C52.9116 51.5592 52.9618 51.7507 52.9618 51.9627C52.9618 52.1926 52.8999 52.4035 52.776 52.5956C52.652 52.7876 52.4841 52.9315 52.272 53.0275C52.5712 53.1146 52.8011 53.263 52.9618 53.4729C53.1226 53.6827 53.2029 53.9294 53.2029 54.2129C53.2029 54.4362 53.1511 54.6533 53.0472 54.8643C52.9434 55.0752 52.8017 55.2438 52.6219 55.3699C52.4422 55.4961 52.2207 55.5736 51.9572 55.6026C51.7921 55.6205 51.3935 55.6316 50.7618 55.6361H49.0908V50.7271ZM50.082 51.544V52.6792H50.7316C51.1177 52.6792 51.3578 52.6736 51.4515 52.6625C51.6211 52.6424 51.7545 52.5838 51.8517 52.4867C51.9488 52.3896 51.9973 52.2618 51.9973 52.1033C51.9973 51.9515 51.9555 51.8282 51.8718 51.7333C51.788 51.6383 51.6636 51.5809 51.4984 51.5608C51.4002 51.5496 51.1178 51.5441 50.6512 51.5441H50.082V51.544ZM50.082 53.4963V54.809H50.9995C51.3567 54.809 51.5833 54.799 51.6792 54.7789C51.8266 54.7521 51.9466 54.6868 52.0393 54.583C52.1319 54.4791 52.1783 54.3402 52.1783 54.1661C52.1783 54.0188 52.1425 53.8937 52.0711 53.791C51.9997 53.6883 51.8965 53.6136 51.7614 53.5666C51.6262 53.5197 51.3332 53.4963 50.8823 53.4963H50.082V53.4963Z" fill="#EBF0F3"></path><path d="M58.4674 55.6361H57.3891L56.9605 54.5211H54.9982L54.593 55.6361H53.5415L55.4536 50.7271H56.5017L58.4674 55.6361ZM56.6424 53.6939L55.9659 51.8723L55.3029 53.6939H56.6424Z" fill="#EBF0F3"></path><path d="M59.0024 55.6361V50.7271H59.9668L61.976 54.0053V50.7271H62.8968V55.6361H61.9023L59.9233 52.4348V55.6361H59.0024Z" fill="#EBF0F3"></path><path d="M63.959 55.6361V50.7271H64.9501V52.907L66.9526 50.7271H68.2854L66.437 52.6391L68.3859 55.6361H67.1033L65.7538 53.3323L64.9501 54.1527V55.6361H63.959V55.6361Z" fill="#EBF0F3"></path><path d="M76.091 70.3639C76.091 72.6234 74.2596 74.4548 72.0001 74.4548C69.7399 74.4548 67.9092 72.6234 67.9092 70.3639C67.9092 68.1043 69.7399 66.2729 72.0001 66.2729C74.2596 66.2729 76.091 68.1043 76.091 70.3639" fill="#EF4130"></path><path d="M81.0002 70.3639C81.0002 72.6234 79.1688 74.4548 76.9093 74.4548C74.6497 74.4548 72.8184 72.6234 72.8184 70.3639C72.8184 68.1043 74.6497 66.2729 76.9093 66.2729C79.1688 66.2729 81.0002 68.1043 81.0002 70.3639Z" fill="#F5C713"></path><path d="M133.183 81.818H100.001C98.5439 81.818 97.3638 80.0961 97.3638 77.9703V54.5747C97.3638 52.4489 98.5439 50.7271 100.001 50.7271H133.181C134.638 50.7271 135.818 52.4489 135.818 54.5747V77.9722C135.82 80.0961 134.638 81.818 133.183 81.818Z" fill="#13AB6E"></path><path d="M132.364 80.9998H99.1825C97.7255 80.9998 96.5454 79.3233 96.5454 77.2534V54.4734C96.5454 52.4036 97.7255 50.7271 99.1825 50.7271H132.363C133.82 50.7271 135 52.4036 135 54.4734V77.2553C135.001 79.3233 133.82 80.9998 132.364 80.9998Z" fill="#19B778"></path><path d="M131.546 80.1819H98.3642C96.9072 80.1819 95.7271 78.5054 95.7271 76.4355V53.6556C95.7271 51.5857 96.9072 49.9092 98.3642 49.9092H131.544C133.001 49.9092 134.182 51.5857 134.182 53.6556V76.4374C134.183 78.5054 133.001 80.1819 131.546 80.1819Z" fill="#1DC180"></path><path d="M130.728 78.5457H97.5463C96.0893 78.5457 94.9092 76.8692 94.9092 74.7993V52.0193C94.9092 49.9495 96.0893 48.2729 97.5463 48.2729H130.727C132.184 48.2729 133.364 49.9495 133.364 52.0193V74.8012C133.365 76.8692 132.184 78.5457 130.728 78.5457Z" fill="#21CB87"></path><path d="M129.91 77.7273H96.7279C95.2723 77.7273 94.0908 76.0508 94.0908 73.9809V51.201C94.0908 49.1311 95.2723 47.4546 96.7279 47.4546H129.908C131.365 47.4546 132.545 49.1311 132.545 51.201V73.9828C132.547 76.0508 131.365 77.7273 129.91 77.7273Z" fill="#40DC9E"></path><path d="M96.5454 66.314V58.0492C99.3784 58.0492 101.675 54.7707 101.675 50.7271H124.143C124.143 54.7707 126.44 58.0492 129.273 58.0492V66.314C126.44 66.314 124.143 69.5925 124.143 73.6361H101.675C101.675 69.5925 99.3784 66.314 96.5454 66.314Z" fill="#74F2C0"></path><path d="M113.307 71.9379C117.593 71.9379 121.068 67.7392 121.068 62.5598C121.068 57.3804 117.593 53.1816 113.307 53.1816C109.02 53.1816 105.545 57.3804 105.545 62.5598C105.545 67.7392 109.02 71.9379 113.307 71.9379Z" fill="#40DC9E"></path><path d="M59.3445 129.706H56.9843H56.4598H54.8863H54.3618H52.0016C51.2768 129.706 50.6904 130.341 50.6904 131.126C50.6904 131.911 51.2768 132.546 52.0016 132.546H54.3618H54.8863H56.4598H56.9843H59.3445C60.0693 132.546 60.6557 131.911 60.6557 131.126C60.6557 130.341 60.0693 129.706 59.3445 129.706Z" fill="#3B3B3B"></path><path d="M79.799 129.706H77.4389H76.9144H75.3409H74.8164H72.4562C71.7309 129.706 71.145 130.341 71.145 131.126C71.145 131.911 71.7309 132.546 72.4562 132.546H74.8164H75.3409H76.9144H77.4389H79.799C80.5239 132.546 81.1103 131.911 81.1103 131.126C81.1103 130.341 80.5239 129.706 79.799 129.706Z" fill="#3B3B3B"></path><path d="M80.2074 92.4546H51.5199C47.5589 92.4546 45 94.9147 45 98.7228V125.551C45 129.358 47.8197 131.568 51.7807 131.568H79.9466C83.907 131.568 86.7273 129.358 86.7273 125.551V98.7228C86.7273 94.9147 84.1678 92.4546 80.2074 92.4546Z" fill="#BAC3C7"></path><path d="M45.5168 125.212V99.055C45.5168 95.3422 48.0523 92.9435 51.9769 92.9435H80.4015C82.2135 92.9435 83.7236 93.4603 84.8306 94.3761C83.7014 93.1547 81.9969 92.4546 79.8847 92.4546H51.4601C47.5355 92.4546 45 94.8532 45 98.5661V124.724C45 126.603 45.7184 128.081 46.9344 129.085C46.0352 128.112 45.5168 126.807 45.5168 125.212Z" fill="#F5F5F5"></path><path fill-rule="evenodd" clip-rule="evenodd" d="M52.4841 128.464H79.2429C80.4054 128.464 84.1982 128.162 84.1982 124.273V99.3615C84.1982 96.5915 82.4386 94.938 79.4907 94.938H52.2364C49.2884 94.938 47.5288 96.5915 47.5288 99.3615V124.273C47.5288 128.162 51.3216 128.464 52.4841 128.464ZM48.5191 99.3623C48.5191 97.1104 49.8392 95.87 52.2356 95.87H79.4899C81.8863 95.87 83.2064 97.1104 83.2064 99.3623V124.274C83.2064 127.11 80.7228 127.533 79.2422 127.533H52.4834C51.0027 127.533 48.5191 127.11 48.5191 124.274V99.3623Z" fill="#B3B3B3"></path><path d="M48.7258 126.869C48.3136 126.375 48.0454 125.694 48.0454 124.755V99.0258C48.0454 96.7001 49.4217 95.4189 51.9201 95.4189H80.3346C81.4201 95.4189 82.2932 95.6613 82.9338 96.1254C82.2839 95.3487 81.2305 94.938 79.818 94.938H51.4035C48.9051 94.938 47.5288 96.2192 47.5288 98.5449V124.274C47.5288 125.564 48.032 126.369 48.7258 126.869Z" fill="#F5F5F5"></path><path d="M65.9049 99.2271C59.0964 99.2271 53.5571 104.652 53.5571 111.319C53.5571 117.986 59.0964 123.412 65.9049 123.412C72.7113 123.412 78.2512 117.986 78.2512 111.319C78.2512 104.652 72.7113 99.2271 65.9049 99.2271Z" fill="#B3B3B3"></path><path d="M65.8897 122.281C59.7076 122.281 54.6777 117.342 54.6777 111.271C54.6777 105.201 59.7076 100.262 65.8897 100.262C72.0711 100.262 77.1003 105.201 77.1003 111.271C77.1003 117.342 72.0718 122.281 65.8897 122.281Z" fill="#E6E6E6"></path><ellipse cx="65.7799" cy="111.371" rx="5.0475" ry="4.95663" fill="#A2ADB1"></ellipse><path d="M65.7808 101.758C65.2455 101.758 64.7866 102.209 64.7866 102.735V104.725C64.7866 105.25 65.2455 105.701 65.7808 105.701C66.3162 105.701 66.775 105.25 66.775 104.725V102.735C66.775 102.209 66.3162 101.758 65.7808 101.758Z" fill="#A2ADB1"></path><path d="M65.7808 117.078C65.2455 117.078 64.7866 117.529 64.7866 118.054V120.045C64.7866 120.57 65.2455 121.021 65.7808 121.021C66.3162 121.021 66.775 120.57 66.775 120.045V118.054C66.775 117.491 66.3162 117.078 65.7808 117.078Z" fill="#A2ADB1"></path><path d="M75.5692 111.37C75.5692 110.845 75.1103 110.394 74.5749 110.394H72.5484C72.0131 110.394 71.5542 110.845 71.5542 111.37C71.5542 111.896 72.0131 112.347 72.5484 112.347H74.5751C75.1486 112.347 75.5692 111.934 75.5692 111.37Z" fill="#A2ADB1"></path><path d="M60.0063 111.37C60.0063 110.845 59.5474 110.394 59.0121 110.394H56.9854C56.4501 110.394 55.9912 110.845 55.9912 111.37C55.9912 111.896 56.4501 112.347 56.9854 112.347H59.0121C59.5474 112.347 60.0063 111.934 60.0063 111.37Z" fill="#A2ADB1"></path><path d="M72.702 104.574C72.3196 104.199 71.7078 104.199 71.3253 104.574L69.8723 106.001C69.4898 106.377 69.4898 106.977 69.8723 107.353C70.2547 107.728 70.8665 107.728 71.2489 107.353L72.702 105.926C73.0844 105.588 73.0844 104.95 72.702 104.574Z" fill="#A2ADB1"></path><path d="M61.6883 115.39C61.3059 115.014 60.6941 115.014 60.3117 115.39L58.8586 116.816C58.4762 117.192 58.4762 117.793 58.8586 118.168C59.241 118.544 59.8528 118.544 60.2352 118.168L61.6883 116.741C62.0707 116.403 62.0707 115.765 61.6883 115.39Z" fill="#A2ADB1"></path><path d="M72.702 118.205C73.0844 117.829 73.0844 117.229 72.702 116.853L71.2489 115.426C70.8665 115.051 70.2547 115.051 69.8723 115.426C69.4898 115.802 69.4898 116.402 69.8723 116.778L71.3253 118.205C71.7078 118.58 72.3196 118.58 72.702 118.205Z" fill="#A2ADB1"></path><path d="M61.6883 107.39C62.0707 107.015 62.0707 106.414 61.6883 106.039L60.2352 104.574C59.8528 104.199 59.241 104.199 58.8586 104.574C58.4762 104.95 58.4762 105.55 58.8586 105.926L60.3117 107.353C60.6941 107.766 61.3059 107.766 61.6883 107.39Z" fill="#A2ADB1"></path><rect x="94.9092" y="92.4546" width="40.0909" height="40.0909" rx="12" fill="#F4C85B"></rect><path d="M117.414 127.705C125.809 126.344 131.511 118.435 130.15 110.041C128.789 101.646 120.881 95.9437 112.486 97.3045C104.091 98.6654 98.3893 106.574 99.7502 114.969C101.111 123.363 109.02 129.065 117.414 127.705Z" fill="#EFB250"></path><path d="M122.542 113.483C122.234 113.075 121.841 112.735 121.376 112.463C121.025 112.253 120.633 112.086 120.199 111.961C120.989 111.573 121.575 111.061 121.967 110.428C122.354 109.795 122.548 109.12 122.548 108.398C122.548 107.629 122.328 106.892 121.888 106.185C121.449 105.479 120.842 104.956 120.068 104.616C119.482 104.355 118.75 104.198 117.871 104.135V102.042H115.663V104.104H114.549V102.042H112.347V104.104H111.411V104.098H108.947V106.076H110.683V118.913H108.947V120.89H110.683V120.895H112.347V122.961H114.549V120.895H115.663V122.961H117.871V120.88C118.603 120.843 119.247 120.754 119.796 120.613C120.528 120.43 121.146 120.152 121.632 119.786C122.119 119.42 122.532 118.897 122.861 118.222C123.196 117.547 123.364 116.815 123.364 116.03C123.364 115.052 123.086 114.205 122.542 113.483V113.483ZM112.907 106.086H116.26C117.468 106.086 118.321 106.165 118.813 106.321C119.31 106.478 119.691 106.766 119.958 107.19C120.225 107.614 120.361 108.105 120.361 108.665C120.361 109.251 120.22 109.737 119.932 110.13C119.644 110.517 119.221 110.799 118.656 110.967C118.227 111.097 117.521 111.16 116.537 111.16H112.907V106.086V106.086ZM120.727 117.443C120.507 117.851 120.225 118.165 119.88 118.374C119.534 118.588 119.111 118.74 118.598 118.834C118.305 118.887 117.803 118.913 117.086 118.913H112.907V113.143H116.788C117.855 113.143 118.677 113.237 119.247 113.42C119.587 113.535 119.88 113.697 120.136 113.907C120.303 114.048 120.45 114.21 120.581 114.398C120.9 114.859 121.062 115.403 121.062 116.03C121.062 116.564 120.947 117.035 120.727 117.443V117.443Z" fill="#CC903A"></path><path d="M122.051 113.483C121.742 113.075 121.35 112.735 120.885 112.463C120.534 112.253 120.142 112.086 119.708 111.961C120.497 111.573 121.083 111.061 121.476 110.428C121.863 109.795 122.056 109.12 122.056 108.398C122.056 107.629 121.837 106.892 121.397 106.185C120.958 105.479 120.351 104.956 119.577 104.616C118.991 104.355 118.259 104.198 117.38 104.135V102.042H115.172V104.104H114.058V102.042H111.856V104.104H110.919V104.098H108.456V106.076H110.192V118.913H108.456V120.89H110.192V120.895H111.856V122.961H114.058V120.895H115.172V122.961H117.38V120.88C118.112 120.843 118.756 120.754 119.305 120.613C120.037 120.43 120.654 120.152 121.141 119.786C121.627 119.42 122.041 118.897 122.37 118.222C122.705 117.547 122.872 116.815 122.872 116.03C122.872 115.052 122.595 114.205 122.051 113.483V113.483ZM112.415 106.086H115.769C116.977 106.086 117.83 106.165 118.321 106.321C118.818 106.478 119.2 106.766 119.467 107.19C119.734 107.614 119.87 108.105 119.87 108.665C119.87 109.251 119.729 109.737 119.441 110.13C119.153 110.517 118.729 110.799 118.164 110.967C117.735 111.097 117.029 111.16 116.046 111.16H112.415V106.086ZM120.236 117.443C120.016 117.851 119.734 118.165 119.388 118.374C119.043 118.588 118.62 118.74 118.107 118.834C117.814 118.887 117.312 118.913 116.595 118.913H112.415V113.143H116.297C117.364 113.143 118.185 113.237 118.756 113.42C119.096 113.535 119.388 113.697 119.645 113.907C119.812 114.048 119.959 114.21 120.089 114.398C120.409 114.859 120.571 115.403 120.571 116.03C120.571 116.564 120.456 117.035 120.236 117.443Z" fill="#FCD462"></path></svg>