<svg xmlns="http://www.w3.org/2000/svg" width="180" height="180" viewBox="0 0 180 180" fill="none"><g id="intro5_img"><path id="Combined Shape" fill-rule="evenodd" clip-rule="evenodd" d="M180 90C180 139.706 139.706 180 90 180C80.6276 180 71.5897 178.567 63.0935 175.909H39.2727C37.0134 175.909 35.1818 174.078 35.1818 171.818C35.1818 169.559 37.0134 167.727 39.2727 167.727H42.1364H44.6008C44.3846 167.601 44.169 167.473 43.954 167.345C45.5339 166.647 46.6364 165.066 46.6364 163.227C46.6364 160.742 44.6216 158.727 42.1364 158.727H31.8889H20.8636H16.3636C14.1043 158.727 12.2727 156.896 12.2727 154.636C12.2727 152.377 14.1043 150.545 16.3636 150.545H23.409C8.86538 134.559 0 113.315 0 90C0 40.2944 40.2944 0 90 0C99.3725 0 108.41 1.43265 116.906 4.09091H141.545C143.805 4.09091 145.636 5.92247 145.636 8.18182C145.636 10.4412 143.805 12.2727 141.545 12.2727H136.227H135.399L135.499 12.3313C133.36 12.6793 131.727 14.5353 131.727 16.7727C131.727 19.258 133.742 21.2727 136.227 21.2727H148.111H157.5H160.364C162.623 21.2727 164.455 23.1043 164.455 25.3636C164.455 27.623 162.623 29.4545 160.364 29.4545H156.591C171.135 45.441 180 66.6852 180 90ZM27.8182 167.727C25.5588 167.727 23.7273 169.559 23.7273 171.818C23.7273 174.078 25.5588 175.909 27.8182 175.909C30.0775 175.909 31.9091 174.078 31.9091 171.818C31.9091 169.559 30.0775 167.727 27.8182 167.727ZM167.727 25.3636C167.727 23.1043 169.559 21.2727 171.818 21.2727C174.078 21.2727 175.909 23.1043 175.909 25.3636C175.909 27.623 174.078 29.4545 171.818 29.4545C169.559 29.4545 167.727 27.623 167.727 25.3636Z" fill="#C6F1FF"></path><path id="Vector" d="M86.7417 40.2764V64.0243H86.6221C84.7641 64.0243 82.9444 64.1959 81.1812 64.5277C80.4181 64.67 79.6641 64.8438 78.9236 65.0447C66.4593 68.4266 57.2933 79.8186 57.2933 93.353C57.2933 98.6788 58.7134 103.677 61.1968 107.982L54.7671 120.016L40.6276 119.858C36.1214 112.06 33.5454 103.007 33.5454 93.353C33.5454 66.6522 53.2567 44.5591 78.9236 40.8317C79.6709 40.7234 80.4227 40.6308 81.1812 40.5541C82.9693 40.3689 84.7844 40.2764 86.6221 40.2764H86.7417Z" fill="#778FBA"></path><path id="Union" d="M86.6222 146.431C89.814 146.431 92.9417 146.148 95.9766 145.609L95.9773 145.607L95.9775 145.609C105.545 143.906 114.228 139.642 121.288 133.546C121.504 133.359 121.721 133.169 121.936 132.977C122.5 132.474 123.055 131.959 123.597 131.429L123.6 131.426C124.932 130.135 126.194 128.774 127.383 127.347L127.386 127.345L127.388 127.342L109.198 112.079L109.196 112.081L109.194 112.083C109.191 112.085 109.189 112.088 109.187 112.091C109.185 112.094 109.182 112.097 109.18 112.099C107.995 113.523 106.674 114.84 105.238 116.018C105.236 116.018 105.236 116.018 105.234 116.02C104.651 116.499 104.051 116.955 103.432 117.388C103.15 117.587 102.861 117.781 102.572 117.969C99.3733 120.048 95.7457 121.517 91.8518 122.217C90.1538 122.524 88.4079 122.682 86.6222 122.682C75.7526 122.682 66.2629 116.769 61.1975 107.982L40.627 119.859C49.7983 135.742 66.9612 146.431 86.6222 146.431Z" fill="#FFA855"></path><path id="Union_2" d="M91.3409 50.0293L86.7421 40.2764H86.6225C84.7848 40.2764 82.9696 40.3689 81.1816 40.5541V56.516C63.1761 59.1395 49.3491 74.6422 49.3491 93.3756C49.3491 100.142 51.153 106.49 54.3091 111.958L61.1971 107.982C58.7137 103.677 57.2937 98.6787 57.2937 93.353C57.2937 77.3059 70.1798 64.2699 86.1692 64.0277C86.32 64.0254 86.4711 64.0243 86.6225 64.0243H86.7421L91.3409 50.0293Z" fill="#59657B"></path><path id="Union_3" d="M93.23 130.037C91.0785 130.425 88.8615 130.626 86.5994 130.626C72.794 130.626 60.7428 123.118 54.3086 111.958L61.1966 107.982C66.2627 116.769 75.7537 122.682 86.6219 122.682C88.4077 122.682 90.1529 122.522 91.8506 122.217C96.8739 121.314 101.453 119.131 105.239 116.018L105.238 116.017C106.674 114.839 107.995 113.523 109.18 112.098C109.182 112.096 109.185 112.093 109.187 112.09C109.189 112.087 109.191 112.085 109.194 112.082L109.196 112.08C109.197 112.079 109.197 112.079 109.198 112.078L109.205 112.083L122.27 116.629L125.997 126.174L127.388 127.342L127.386 127.344L127.383 127.346C126.194 128.773 124.932 130.134 123.6 131.426L111.39 121.18C106.371 125.659 100.13 128.798 93.23 130.037Z" fill="#EA7E16"></path><path id="Vector_2" d="M145.636 93.3539C145.636 106.89 141.076 119.363 133.414 129.32C132.629 130.34 131.154 130.503 130.169 129.676L113.745 115.893L109.197 112.079C113.415 106.999 115.951 100.471 115.951 93.3537C115.951 77.1954 102.885 64.089 86.7407 64.0249V36.6483C86.7407 35.3624 87.8135 34.3381 89.0984 34.3911C120.542 35.689 145.636 61.5925 145.636 93.3539Z" fill="#21CB87"></path><path id="Vector_3" d="M123.85 93.3762C123.85 102.42 120.626 110.715 115.264 117.167L113.745 115.894L109.198 112.078C113.415 106.999 115.951 100.47 115.951 93.3537C115.951 77.1959 102.886 64.0881 86.7417 64.0249V56.1255C107.25 56.2022 123.85 72.8499 123.85 93.3762Z" fill="#38B48A"></path><path id="XMLID_143_" d="M98.7949 93.6978V94.3746C98.7949 98.1647 92.4302 101.237 84.5794 101.237C80.2458 101.237 76.3677 100.3 73.7603 98.8236C74.6394 102.238 80.6143 105.064 87.8599 105.064C95.7107 105.064 102.075 101.746 102.075 97.9564C102.075 96.2899 100.842 94.8213 98.7949 93.6978Z" fill="#FCC62D"></path><path id="XMLID_142_" d="M87.8601 105.064C80.0093 105.064 73.6445 101.747 73.6445 97.9565V102.576C73.6445 106.366 80.0093 109.438 87.8601 109.438C95.7109 109.438 102.076 106.366 102.076 102.576V97.9565C102.076 101.747 95.7109 105.064 87.8601 105.064Z" fill="#E4AF18"></path><path id="XMLID_141_" d="M75.2847 105.802C75.6073 106.097 75.973 106.379 76.3782 106.647V102.114C75.973 101.835 75.6073 101.542 75.2847 101.237V105.802Z" fill="#CE9912"></path><path id="XMLID_140_" d="M99.3413 102.114V106.647C99.7465 106.38 100.112 106.097 100.435 105.802V101.237C100.113 101.542 99.747 101.835 99.3413 102.114Z" fill="#CE9912"></path><path id="XMLID_139_" d="M77.4717 107.285C77.8172 107.464 78.1825 107.633 78.5652 107.793V103.314C78.1825 103.145 77.8172 102.968 77.4717 102.781V107.285Z" fill="#CE9912"></path><path id="XMLID_138_" d="M97.1543 107.792C97.537 107.632 97.9023 107.463 98.2478 107.284V102.779C97.9023 102.966 97.537 103.145 97.1543 103.312V107.792Z" fill="#CE9912"></path><path id="XMLID_137_" d="M79.6587 108.206C80.0119 108.327 80.3766 108.44 80.7522 108.545V104.108C80.3766 103.997 80.0119 103.877 79.6587 103.75V108.206Z" fill="#CE9912"></path><path id="XMLID_136_" d="M94.9673 108.545C95.3429 108.44 95.7076 108.327 96.0608 108.206V103.75C95.7076 103.877 95.3429 103.997 94.9673 104.108V108.545Z" fill="#CE9912"></path><path id="XMLID_135_" d="M82.3921 108.939C82.7491 109.011 83.1143 109.075 83.4856 109.133V104.735C83.1143 104.673 82.7491 104.604 82.3921 104.527V108.939Z" fill="#CE9912"></path><path id="XMLID_134_" d="M92.2339 109.132C92.6051 109.074 92.9704 109.009 93.3274 108.938V104.526C92.9704 104.602 92.6051 104.671 92.2339 104.734V109.132Z" fill="#CE9912"></path><path id="XMLID_133_" d="M85.6724 109.384C86.0321 109.411 86.3974 109.429 86.7659 109.442V105.067C86.3974 105.053 86.0321 105.033 85.6724 105.004V109.384Z" fill="#CE9912"></path><path id="XMLID_132_" d="M88.9531 109.443C89.3216 109.429 89.6869 109.411 90.0466 109.384V105.004C89.6869 105.033 89.3216 105.053 88.9531 105.067V109.443Z" fill="#CE9912"></path><path id="XMLID_131_" d="M84.5793 96.8602C76.7285 96.8602 70.3638 93.5425 70.3638 89.7524V94.3714C70.3638 98.1615 76.7285 101.234 84.5793 101.234C92.4301 101.234 98.7949 98.1615 98.7949 94.3714V89.7524C98.7949 93.5425 92.4301 96.8602 84.5793 96.8602Z" fill="#E4AF18"></path><path id="XMLID_130_" d="M72.0039 97.5975C72.3265 97.8922 72.6923 98.1743 73.0974 98.4422V93.9091C72.6923 93.6303 72.3265 93.3377 72.0039 93.0332V97.5975Z" fill="#CE9912"></path><path id="XMLID_129_" d="M96.061 93.9096V98.4428C96.4662 98.1754 96.832 97.8927 97.1545 97.598V93.0332C96.8325 93.3383 96.4667 93.6308 96.061 93.9096Z" fill="#CE9912"></path><path id="XMLID_128_" d="M74.1909 99.0799C74.5365 99.2587 74.9017 99.4276 75.2844 99.5878V95.1083C74.9017 94.9399 74.5365 94.7622 74.1909 94.5752V99.0799Z" fill="#CE9912"></path><path id="XMLID_127_" d="M93.8735 99.5864C94.2563 99.4267 94.6215 99.2578 94.967 99.0784V94.5737C94.6215 94.7607 94.2563 94.939 93.8735 95.1068V99.5864Z" fill="#CE9912"></path><path id="XMLID_126_" d="M76.3779 100.001C76.7311 100.122 77.0958 100.235 77.4714 100.34V95.9036C77.0958 95.7921 76.7311 95.6723 76.3779 95.5449V100.001Z" fill="#CE9912"></path><path id="XMLID_125_" d="M91.6865 100.34C92.0621 100.235 92.4268 100.122 92.78 100.001V95.5449C92.4268 95.6723 92.0621 95.7921 91.6865 95.9036V100.34Z" fill="#CE9912"></path><path id="XMLID_124_" d="M79.1118 100.733C79.4688 100.805 79.8341 100.87 80.2053 100.927V96.529C79.8341 96.4672 79.4688 96.3983 79.1118 96.3218V100.733Z" fill="#CE9912"></path><path id="XMLID_123_" d="M88.9531 100.928C89.3244 100.87 89.6896 100.805 90.0466 100.734V96.3218C89.6896 96.3983 89.3244 96.4672 88.9531 96.5295V100.928Z" fill="#CE9912"></path><path id="XMLID_122_" d="M82.3921 101.179C82.7519 101.206 83.1171 101.225 83.4856 101.238V96.8622C83.1171 96.848 82.7519 96.8283 82.3921 96.7993V101.179Z" fill="#CE9912"></path><path id="XMLID_121_" d="M85.6724 101.237C86.0409 101.223 86.4061 101.205 86.7659 101.178V96.7979C86.4061 96.8268 86.0409 96.8465 85.6724 96.8613V101.237Z" fill="#CE9912"></path><path id="XMLID_120_" d="M98.4212 95.9351C96.9576 98.9728 91.3184 101.237 84.5791 101.237C82.0619 101.237 79.6988 100.92 77.6479 100.366C79.6316 101.713 83.1619 102.859 87.8596 102.859C95.3403 102.859 99.8882 99.9553 99.8882 97.9569C99.8882 97.2899 99.3748 96.5824 98.4212 95.9351Z" fill="#FFD949"></path><path id="XMLID_119_" d="M87.3131 95.7695C79.4623 95.7695 73.0975 92.6967 73.0975 88.9066V85.8164C71.3802 86.893 70.3638 88.2429 70.3638 89.7552C70.3638 93.5453 76.7285 96.863 84.5793 96.863C88.3596 96.863 91.7921 96.0926 94.3383 94.8717C92.2656 95.442 89.8692 95.7695 87.3131 95.7695Z" fill="#FFD949"></path><path id="XMLID_118_" d="M87.3127 91.3915C79.4619 91.3915 73.0972 88.0738 73.0972 84.2837V88.9027C73.0972 92.6927 79.4619 95.7655 87.3127 95.7655C95.1635 95.7655 101.528 92.6927 101.528 88.9027V84.2837C101.528 88.0738 95.1635 91.3915 87.3127 91.3915Z" fill="#E4AF18"></path><path id="XMLID_117_" d="M74.7373 92.1307C75.0599 92.4254 75.4257 92.7075 75.8308 92.9754V88.4423C75.4257 88.1635 75.0599 87.8709 74.7373 87.5664V92.1307Z" fill="#CE9912"></path><path id="XMLID_116_" d="M98.7944 88.4409V92.974C99.1996 92.7067 99.5654 92.424 99.8879 92.1293V87.5645C99.5659 87.8695 99.2001 88.1621 98.7944 88.4409Z" fill="#CE9912"></path><path id="XMLID_115_" d="M76.9243 93.6116C77.2699 93.7904 77.6351 93.9594 78.0178 94.1196V89.64C77.6351 89.4716 77.2699 89.2939 76.9243 89.1069V93.6116Z" fill="#CE9912"></path><path id="XMLID_114_" d="M96.6079 94.1196C96.9906 93.9599 97.3559 93.791 97.7014 93.6116V89.1069C97.3559 89.2939 96.9906 89.4722 96.6079 89.64V94.1196Z" fill="#CE9912"></path><path id="XMLID_113_" d="M79.1118 94.5332C79.465 94.6541 79.8297 94.7667 80.2053 94.8717V90.4353C79.8297 90.3238 79.465 90.2041 79.1118 90.0767V94.5332Z" fill="#CE9912"></path><path id="XMLID_112_" d="M94.4209 94.8717C94.7965 94.7667 95.1612 94.6541 95.5144 94.5332V90.0767C95.1612 90.2041 94.7965 90.3238 94.4209 90.4353V94.8717Z" fill="#CE9912"></path><path id="XMLID_111_" d="M81.8452 95.2647C82.2022 95.3369 82.5675 95.4014 82.9387 95.4588V91.0607C82.5675 90.999 82.2022 90.9301 81.8452 90.8535V95.2647Z" fill="#CE9912"></path><path id="XMLID_110_" d="M91.6865 95.4594C92.0578 95.4014 92.423 95.3369 92.78 95.2653V90.8535C92.423 90.9301 92.0578 90.999 91.6865 91.0613V95.4594Z" fill="#CE9912"></path><path id="XMLID_109_" d="M85.126 95.7111C85.4857 95.7379 85.851 95.7565 86.2195 95.7696V91.3939C85.851 91.3797 85.4857 91.36 85.126 91.3311V95.7111Z" fill="#CE9912"></path><path id="XMLID_108_" d="M88.4067 95.7701C88.7752 95.7565 89.1405 95.7384 89.5002 95.7116V91.3311C89.1405 91.36 88.7752 91.3797 88.4067 91.3945V95.7701Z" fill="#CE9912"></path><path id="XMLID_107_" d="M101.528 84.2881C101.528 88.0782 95.1635 91.3959 87.3127 91.3959C79.4619 91.3959 73.0972 88.0782 73.0972 84.2881C73.0972 80.498 79.4619 77.7271 87.3127 77.7271C95.1635 77.7271 101.528 80.498 101.528 84.2881Z" fill="#FCC62D"></path><path id="XMLID_106_" d="M87.3132 89.1896C79.8326 89.1896 75.2847 86.2864 75.2847 84.2875C75.2847 82.2891 79.8326 79.3667 87.3132 79.3667C94.7939 79.3667 99.3418 82.2891 99.3418 84.2875C99.3418 86.2864 94.7939 89.1896 87.3132 89.1896Z" fill="#FFD949"></path></g></svg>